<svg width="180" height="44" viewBox="0 0 180 44" xmlns="http://www.w3.org/2000/svg" fill="none">
  <rect width="44" height="44" rx="12" fill="#0F172A"/>
  <path d="M12 13.5c0-1.1.9-2 2-2h16c1.1 0 2 .9 2 2v8.8c0 5.1-3.2 9.7-8 11.4l-2 .7-2-.7c-4.8-1.7-8-6.3-8-11.4V13.5Z" fill="#22D3EE"/>
  <path d="M16 18.2c0-.7.5-1.2 1.2-1.2h9.6c.7 0 1.2.5 1.2 1.2v3c0 3.5-2.2 6.6-5.6 7.7l-1.4.5-1.4-.5c-3.4-1.1-5.6-4.2-5.6-7.7v-3Z" fill="#0F172A"/>
  <path d="M17 19h10v2.2c0 2.6-1.7 4.9-4.2 5.7l-.8.3-.8-.3C18.7 26.1 17 23.8 17 21.2V19Z" fill="#22D3EE"/>
  <text x="56" y="28" fill="#0F172A" font-family="Inter, system-ui, -apple-system, sans-serif" font-size="18" font-weight="700" letter-spacing="0.5">Albitros</text>
  <text x="56" y="38" fill="#475569" font-family="Inter, system-ui, -apple-system, sans-serif" font-size="10" font-weight="500" letter-spacing="0.2">Fraud Intelligence</text>
</svg>
